<svg width="30" height="31" viewBox="0 0 30 31" fill="none" xmlns="http://www.w3.org/2000/svg">
<path d="M15 0.899902C6.71875 0.899902 0 7.61865 0 15.8999C0 24.1812 6.71875 30.8999 15 30.8999C23.2812 30.8999 30 24.1812 30 15.8999C30 7.61865 23.2812 0.899902 15 0.899902ZM22.7188 12.2749L13.9062 21.1187C13.625 21.3999 13.2188 21.5874 12.8125 21.5874C12.4062 21.5874 12 21.4312 11.7188 21.1187L7.28125 16.6812C6.65625 16.0562 6.65625 15.0874 7.28125 14.4624C7.90625 13.8374 8.875 13.8374 9.5 14.4624L12.8125 17.7749L20.5312 10.0562C21.1562 9.43115 22.125 9.43115 22.75 10.0562C23.3438 10.6812 23.3438 11.6499 22.7188 12.2749Z" fill="url(#paint0_linear_3880_2162)"/>
<defs>
<linearGradient id="paint0_linear_3880_2162" x1="-399" y1="16.0041" x2="657.5" y2="16.0041" gradientUnits="userSpaceOnUse">
<stop stop-color="#00A7B5"/>
<stop offset="1" stop-color="#64A70B"/>
</linearGradient>
</defs>
</svg>
