<svg width="31" height="31" viewBox="0 0 31 31" fill="none" xmlns="http://www.w3.org/2000/svg">
<path d="M15.5 0.899902C7.21875 0.899902 0.5 7.61865 0.5 15.8999C0.5 24.1812 7.21875 30.8999 15.5 30.8999C23.7812 30.8999 30.5 24.1812 30.5 15.8999C30.5 7.61865 23.7812 0.899902 15.5 0.899902ZM23.2188 12.2749L14.4062 21.1187C14.125 21.3999 13.7188 21.5874 13.3125 21.5874C12.9062 21.5874 12.5 21.4312 12.2188 21.1187L7.78125 16.6812C7.15625 16.0562 7.15625 15.0874 7.78125 14.4624C8.40625 13.8374 9.375 13.8374 10 14.4624L13.3125 17.7749L21.0312 10.0562C21.6562 9.43115 22.625 9.43115 23.25 10.0562C23.8438 10.6812 23.8438 11.6499 23.2188 12.2749Z" fill="url(#paint0_linear_3880_2146)"/>
<defs>
<linearGradient id="paint0_linear_3880_2146" x1="-40" y1="16" x2="1014.5" y2="16" gradientUnits="userSpaceOnUse">
<stop stop-color="#00A7B5"/>
<stop offset="1" stop-color="#64A70B"/>
</linearGradient>
</defs>
</svg>
