<svg width="439" height="55" viewBox="0 0 439 55" fill="none" xmlns="http://www.w3.org/2000/svg">
<path d="M20.2002 9.54443H25.6895V11.4175H22.1006V13.2358H25.6895V15.0747H22.1006V17.7202H25.6895V19.6001H20.2002V9.54443ZM26.7148 9.54443H28.6836L31.2129 16.688L33.7764 9.54443H35.7451L32.1221 19.6001H30.2764L26.7148 9.54443ZM37.29 9.54443H42.7793V11.4175H39.1904V13.2358H42.7793V15.0747H39.1904V17.7202H42.7793V19.6001H37.29V9.54443ZM44.7002 9.54443H46.7305C47.8424 9.54443 48.6331 9.64469 49.1025 9.84521C49.5765 10.0412 49.957 10.3693 50.2441 10.8296C50.5312 11.2899 50.6748 11.8345 50.6748 12.4634C50.6748 13.1242 50.5153 13.6779 50.1963 14.1245C49.8818 14.5666 49.4056 14.9015 48.7676 15.1294L51.1465 19.6001H49.0547L46.792 15.3413H46.6143V19.6001H44.7002V9.54443ZM46.6143 13.4751H47.2158C47.8265 13.4751 48.2458 13.3953 48.4736 13.2358C48.7061 13.0763 48.8223 12.812 48.8223 12.4429C48.8223 12.2241 48.7653 12.035 48.6514 11.8755C48.5374 11.7114 48.3848 11.5952 48.1934 11.5269C48.002 11.4539 47.651 11.4175 47.1406 11.4175H46.6143V13.4751ZM51.9736 9.54443H54.0312L55.9043 13.1538L57.7637 9.54443H59.7939L56.8545 15.2456V19.6001H54.9268V15.2456L51.9736 9.54443ZM66.124 9.2915C67.5459 9.2915 68.7673 9.80648 69.7881 10.8364C70.8135 11.8664 71.3262 13.1219 71.3262 14.603C71.3262 16.0705 70.8203 17.3123 69.8086 18.3286C68.8014 19.3449 67.5778 19.853 66.1377 19.853C64.6292 19.853 63.376 19.3312 62.3779 18.2876C61.3799 17.244 60.8809 16.0044 60.8809 14.5688C60.8809 13.6073 61.1133 12.7231 61.5781 11.9165C62.043 11.1099 62.681 10.4718 63.4922 10.0024C64.3079 9.52848 65.1852 9.2915 66.124 9.2915ZM66.1035 11.1646C65.1738 11.1646 64.3923 11.4881 63.7588 12.1353C63.1253 12.7824 62.8086 13.605 62.8086 14.603C62.8086 15.715 63.2074 16.5946 64.0049 17.2417C64.6247 17.7476 65.3356 18.0005 66.1377 18.0005C67.0446 18.0005 67.8171 17.6724 68.4551 17.0161C69.0931 16.3599 69.4121 15.5509 69.4121 14.5894C69.4121 13.6323 69.0908 12.8234 68.4482 12.1626C67.8057 11.4972 67.0241 11.1646 66.1035 11.1646ZM73.1377 9.54443H74.9697L79.2832 16.1616V9.54443H81.1973V19.6001H79.3584L75.0518 13.0034V19.6001H73.1377V9.54443ZM83.501 9.54443H88.9902V11.4175H85.4014V13.2358H88.9902V15.0747H85.4014V17.7202H88.9902V19.6001H83.501V9.54443ZM94.582 9.2915H95.5391V13.4956C95.9264 12.9852 96.3525 12.6047 96.8174 12.354C97.2822 12.0988 97.7858 11.9712 98.3281 11.9712C98.8841 11.9712 99.3763 12.1125 99.8047 12.395C100.238 12.6776 100.557 13.0581 100.762 13.5366C100.967 14.0106 101.069 14.7557 101.069 15.772V19.6001H100.112V16.0522C100.112 15.1955 100.078 14.6235 100.01 14.3364C99.8913 13.8442 99.6748 13.4751 99.3604 13.229C99.0505 12.9784 98.6426 12.853 98.1367 12.853C97.5579 12.853 97.0384 13.0444 96.5781 13.4272C96.1224 13.8101 95.8216 14.284 95.6758 14.8491C95.5846 15.2137 95.5391 15.8882 95.5391 16.8726V19.6001H94.582V9.2915ZM110.537 12.1626V19.6001H109.594V18.3218C109.193 18.8094 108.742 19.1763 108.24 19.4224C107.743 19.6685 107.199 19.7915 106.606 19.7915C105.554 19.7915 104.654 19.411 103.906 18.6499C103.163 17.8843 102.792 16.9546 102.792 15.8608C102.792 14.7899 103.168 13.8739 103.92 13.1128C104.672 12.3517 105.576 11.9712 106.634 11.9712C107.244 11.9712 107.796 12.1011 108.288 12.3608C108.785 12.6206 109.22 13.0103 109.594 13.5298V12.1626H110.537ZM106.709 12.894C106.176 12.894 105.684 13.0262 105.232 13.2905C104.781 13.5503 104.421 13.9172 104.152 14.3911C103.888 14.8651 103.756 15.3664 103.756 15.895C103.756 16.4191 103.89 16.9204 104.159 17.3989C104.428 17.8774 104.788 18.2511 105.239 18.52C105.695 18.7843 106.183 18.9165 106.702 18.9165C107.226 18.9165 107.723 18.7843 108.192 18.52C108.662 18.2557 109.022 17.8979 109.272 17.4468C109.528 16.9956 109.655 16.4875 109.655 15.9224C109.655 15.061 109.37 14.341 108.801 13.7622C108.236 13.1834 107.538 12.894 106.709 12.894ZM116.437 12.9761L115.821 13.6118C115.311 13.1151 114.812 12.8667 114.324 12.8667C114.014 12.8667 113.748 12.9692 113.524 13.1743C113.306 13.3794 113.196 13.6187 113.196 13.8921C113.196 14.1336 113.287 14.3638 113.47 14.5825C113.652 14.8058 114.035 15.0679 114.618 15.3687C115.329 15.7378 115.812 16.0933 116.067 16.4351C116.318 16.7814 116.443 17.1711 116.443 17.604C116.443 18.2147 116.229 18.7319 115.801 19.1558C115.372 19.5796 114.837 19.7915 114.194 19.7915C113.766 19.7915 113.356 19.6981 112.964 19.5112C112.576 19.3244 112.255 19.0669 112 18.7388L112.602 18.0552C113.089 18.6066 113.606 18.8823 114.153 18.8823C114.536 18.8823 114.862 18.7593 115.131 18.5132C115.4 18.2671 115.534 17.9777 115.534 17.645C115.534 17.3716 115.445 17.1278 115.268 16.9136C115.09 16.7039 114.689 16.4396 114.064 16.1206C113.395 15.7743 112.939 15.4325 112.697 15.0952C112.456 14.758 112.335 14.3729 112.335 13.9399C112.335 13.3748 112.526 12.9054 112.909 12.5317C113.297 12.158 113.784 11.9712 114.372 11.9712C115.056 11.9712 115.744 12.3062 116.437 12.9761ZM122.035 12.1626H122.985V13.5298C123.364 13.0103 123.799 12.6206 124.291 12.3608C124.783 12.1011 125.332 11.9712 125.938 11.9712C126.996 11.9712 127.9 12.3517 128.652 13.1128C129.404 13.8739 129.78 14.7899 129.78 15.8608C129.78 16.9546 129.407 17.8843 128.659 18.6499C127.916 19.411 127.019 19.7915 125.966 19.7915C125.373 19.7915 124.829 19.6685 124.332 19.4224C123.835 19.1763 123.386 18.8094 122.985 18.3218V22.3208H122.035V12.1626ZM125.863 12.894C125.034 12.894 124.334 13.1834 123.765 13.7622C123.2 14.341 122.917 15.061 122.917 15.9224C122.917 16.4875 123.042 16.9956 123.293 17.4468C123.548 17.8979 123.91 18.2557 124.38 18.52C124.854 18.7843 125.353 18.9165 125.877 18.9165C126.392 18.9165 126.875 18.7843 127.326 18.52C127.782 18.2511 128.144 17.8774 128.413 17.3989C128.682 16.9204 128.816 16.4191 128.816 15.895C128.816 15.3664 128.682 14.8651 128.413 14.3911C128.149 13.9172 127.791 13.5503 127.34 13.2905C126.889 13.0262 126.396 12.894 125.863 12.894ZM135.099 11.9712C136.243 11.9712 137.19 12.3859 137.942 13.2153C138.626 13.9718 138.968 14.8674 138.968 15.9019C138.968 16.9409 138.605 17.8501 137.881 18.6294C137.161 19.4041 136.233 19.7915 135.099 19.7915C133.959 19.7915 133.027 19.4041 132.303 18.6294C131.583 17.8501 131.223 16.9409 131.223 15.9019C131.223 14.8719 131.564 13.9787 132.248 13.2222C133 12.3882 133.95 11.9712 135.099 11.9712ZM135.099 12.9077C134.306 12.9077 133.624 13.2017 133.055 13.7896C132.485 14.3774 132.2 15.0884 132.2 15.9224C132.2 16.4601 132.33 16.9614 132.59 17.4263C132.85 17.8911 133.201 18.2511 133.643 18.5063C134.085 18.757 134.57 18.8823 135.099 18.8823C135.627 18.8823 136.113 18.757 136.555 18.5063C136.997 18.2511 137.348 17.8911 137.607 17.4263C137.867 16.9614 137.997 16.4601 137.997 15.9224C137.997 15.0884 137.71 14.3774 137.136 13.7896C136.566 13.2017 135.887 12.9077 135.099 12.9077ZM141.586 9.40088H142.55V12.1626H144.067V12.9829H142.55V19.6001H141.586V12.9829H140.28V12.1626H141.586V9.40088ZM151.758 17.1323L152.564 17.5562C152.3 18.0757 151.995 18.495 151.648 18.814C151.302 19.133 150.912 19.3768 150.479 19.5454C150.047 19.7095 149.557 19.7915 149.01 19.7915C147.798 19.7915 146.85 19.395 146.166 18.6021C145.482 17.8045 145.141 16.9045 145.141 15.9019C145.141 14.9585 145.43 14.1177 146.009 13.3794C146.743 12.4406 147.725 11.9712 148.955 11.9712C150.222 11.9712 151.234 12.452 151.99 13.4136C152.528 14.0926 152.801 14.9403 152.811 15.9565H146.125C146.143 16.8224 146.419 17.5334 146.952 18.0894C147.485 18.6408 148.144 18.9165 148.928 18.9165C149.306 18.9165 149.673 18.8504 150.028 18.7183C150.388 18.5861 150.694 18.4106 150.944 18.1919C151.195 17.9731 151.466 17.62 151.758 17.1323ZM151.758 15.1294C151.63 14.619 151.443 14.2111 151.197 13.9058C150.956 13.6004 150.634 13.3543 150.233 13.1675C149.832 12.9806 149.411 12.8872 148.969 12.8872C148.24 12.8872 147.613 13.1219 147.089 13.5913C146.706 13.9331 146.417 14.4458 146.221 15.1294H151.758ZM154.602 12.1626H155.559V13.4956C155.941 12.9852 156.365 12.6047 156.83 12.354C157.295 12.0988 157.801 11.9712 158.348 11.9712C158.904 11.9712 159.396 12.1125 159.824 12.395C160.257 12.6776 160.576 13.0581 160.781 13.5366C160.986 14.0151 161.089 14.7603 161.089 15.772V19.6001H160.139V16.0522C160.139 15.1955 160.102 14.6235 160.029 14.3364C159.915 13.8442 159.701 13.4751 159.387 13.229C159.072 12.9784 158.662 12.853 158.156 12.853C157.577 12.853 157.058 13.0444 156.598 13.4272C156.142 13.8101 155.841 14.284 155.695 14.8491C155.604 15.2183 155.559 15.8927 155.559 16.8726V19.6001H154.602V12.1626ZM163.98 9.40088H164.944V12.1626H166.462V12.9829H164.944V19.6001H163.98V12.9829H162.675V12.1626H163.98V9.40088ZM168.226 9.1001C168.444 9.1001 168.631 9.17757 168.786 9.33252C168.941 9.48747 169.019 9.67432 169.019 9.89307C169.019 10.1073 168.941 10.2918 168.786 10.4468C168.631 10.6017 168.444 10.6792 168.226 10.6792C168.011 10.6792 167.827 10.6017 167.672 10.4468C167.517 10.2918 167.439 10.1073 167.439 9.89307C167.439 9.67432 167.517 9.48747 167.672 9.33252C167.827 9.17757 168.011 9.1001 168.226 9.1001ZM167.747 12.1626H168.711V19.6001H167.747V12.1626ZM178.104 12.1626V19.6001H177.16V18.3218C176.759 18.8094 176.308 19.1763 175.807 19.4224C175.31 19.6685 174.765 19.7915 174.173 19.7915C173.12 19.7915 172.22 19.411 171.473 18.6499C170.73 17.8843 170.358 16.9546 170.358 15.8608C170.358 14.7899 170.734 13.8739 171.486 13.1128C172.238 12.3517 173.143 11.9712 174.2 11.9712C174.811 11.9712 175.362 12.1011 175.854 12.3608C176.351 12.6206 176.786 13.0103 177.16 13.5298V12.1626H178.104ZM174.275 12.894C173.742 12.894 173.25 13.0262 172.799 13.2905C172.348 13.5503 171.988 13.9172 171.719 14.3911C171.454 14.8651 171.322 15.3664 171.322 15.895C171.322 16.4191 171.457 16.9204 171.726 17.3989C171.994 17.8774 172.354 18.2511 172.806 18.52C173.261 18.7843 173.749 18.9165 174.269 18.9165C174.793 18.9165 175.289 18.7843 175.759 18.52C176.228 18.2557 176.588 17.8979 176.839 17.4468C177.094 16.9956 177.222 16.4875 177.222 15.9224C177.222 15.061 176.937 14.341 176.367 13.7622C175.802 13.1834 175.105 12.894 174.275 12.894ZM180.12 9.2915H181.077V19.6001H180.12V9.2915ZM6.96582 37.522V36.5444H12.4824V37.522H10.2402V46.6001H9.21484V37.522H6.96582ZM21.1777 39.1626V46.6001H20.2344V45.3218C19.8333 45.8094 19.3822 46.1763 18.8809 46.4224C18.3841 46.6685 17.8395 46.7915 17.2471 46.7915C16.1943 46.7915 15.2943 46.411 14.5469 45.6499C13.804 44.8843 13.4326 43.9546 13.4326 42.8608C13.4326 41.7899 13.8086 40.8739 14.5605 40.1128C15.3125 39.3517 16.2171 38.9712 17.2744 38.9712C17.8851 38.9712 18.4365 39.1011 18.9287 39.3608C19.4255 39.6206 19.8607 40.0103 20.2344 40.5298V39.1626H21.1777ZM17.3496 39.894C16.8164 39.894 16.3242 40.0262 15.873 40.2905C15.4219 40.5503 15.0618 40.9172 14.793 41.3911C14.5286 41.8651 14.3965 42.3664 14.3965 42.895C14.3965 43.4191 14.5309 43.9204 14.7998 44.3989C15.0687 44.8774 15.4287 45.2511 15.8799 45.52C16.3356 45.7843 16.8232 45.9165 17.3428 45.9165C17.8669 45.9165 18.3636 45.7843 18.833 45.52C19.3024 45.2557 19.6624 44.8979 19.9131 44.4468C20.1683 43.9956 20.2959 43.4875 20.2959 42.9224C20.2959 42.061 20.0111 41.341 19.4414 40.7622C18.8763 40.1834 18.179 39.894 17.3496 39.894ZM23.1943 36.2915H24.1514V46.6001H23.1943V36.2915ZM32.4023 44.1323L33.209 44.5562C32.9447 45.0757 32.6393 45.495 32.293 45.814C31.9466 46.133 31.557 46.3768 31.124 46.5454C30.6911 46.7095 30.2012 46.7915 29.6543 46.7915C28.4421 46.7915 27.4941 46.395 26.8105 45.6021C26.127 44.8045 25.7852 43.9045 25.7852 42.9019C25.7852 41.9585 26.0745 41.1177 26.6533 40.3794C27.387 39.4406 28.3691 38.9712 29.5996 38.9712C30.8665 38.9712 31.8783 39.452 32.6348 40.4136C33.1725 41.0926 33.446 41.9403 33.4551 42.9565H26.7695C26.7878 43.8224 27.0635 44.5334 27.5967 45.0894C28.1299 45.6408 28.7884 45.9165 29.5723 45.9165C29.9505 45.9165 30.3174 45.8504 30.6729 45.7183C31.0329 45.5861 31.3382 45.4106 31.5889 45.1919C31.8395 44.9731 32.1107 44.62 32.4023 44.1323ZM32.4023 42.1294C32.2747 41.619 32.0879 41.2111 31.8418 40.9058C31.6003 40.6004 31.279 40.3543 30.8779 40.1675C30.4769 39.9806 30.0553 39.8872 29.6133 39.8872C28.8841 39.8872 28.2575 40.1219 27.7334 40.5913C27.3506 40.9331 27.0612 41.4458 26.8652 42.1294H32.4023ZM35.2461 39.1626H36.2031V40.4956C36.5859 39.9852 37.0098 39.6047 37.4746 39.354C37.9395 39.0988 38.4453 38.9712 38.9922 38.9712C39.5482 38.9712 40.0404 39.1125 40.4688 39.395C40.9017 39.6776 41.2207 40.0581 41.4258 40.5366C41.6309 41.0151 41.7334 41.7603 41.7334 42.772V46.6001H40.7832V43.0522C40.7832 42.1955 40.7467 41.6235 40.6738 41.3364C40.5599 40.8442 40.3457 40.4751 40.0312 40.229C39.7168 39.9784 39.3066 39.853 38.8008 39.853C38.222 39.853 37.7025 40.0444 37.2422 40.4272C36.7865 40.8101 36.4857 41.284 36.3398 41.8491C36.2487 42.2183 36.2031 42.8927 36.2031 43.8726V46.6001H35.2461V39.1626ZM44.625 36.4009H45.5889V39.1626H47.1064V39.9829H45.5889V46.6001H44.625V39.9829H43.3193V39.1626H44.625V36.4009ZM59.6367 40.7075L58.8779 41.1792C58.2217 40.3088 57.3262 39.8735 56.1914 39.8735C55.2845 39.8735 54.5303 40.1652 53.9287 40.7485C53.3317 41.3319 53.0332 42.0405 53.0332 42.8745C53.0332 43.4168 53.1699 43.9272 53.4434 44.4058C53.7214 44.8843 54.0996 45.2557 54.5781 45.52C55.0612 45.7843 55.6012 45.9165 56.1982 45.9165C57.292 45.9165 58.1852 45.4813 58.8779 44.6108L59.6367 45.1099C59.2812 45.6431 58.8027 46.0578 58.2012 46.354C57.6042 46.6457 56.9229 46.7915 56.1572 46.7915C54.9814 46.7915 54.0062 46.4178 53.2314 45.6704C52.4567 44.923 52.0693 44.0138 52.0693 42.9429C52.0693 42.2228 52.2493 41.5552 52.6094 40.9399C52.974 40.3201 53.473 39.8371 54.1064 39.4907C54.7399 39.1444 55.4486 38.9712 56.2324 38.9712C56.7246 38.9712 57.1986 39.0464 57.6543 39.1968C58.1146 39.3472 58.5042 39.5431 58.8232 39.7847C59.1423 40.0262 59.4134 40.3338 59.6367 40.7075ZM68.8926 39.1626V46.6001H67.9492V45.3218C67.5482 45.8094 67.097 46.1763 66.5957 46.4224C66.099 46.6685 65.5544 46.7915 64.9619 46.7915C63.9092 46.7915 63.0091 46.411 62.2617 45.6499C61.5189 44.8843 61.1475 43.9546 61.1475 42.8608C61.1475 41.7899 61.5234 40.8739 62.2754 40.1128C63.0273 39.3517 63.932 38.9712 64.9893 38.9712C65.5999 38.9712 66.1514 39.1011 66.6436 39.3608C67.1403 39.6206 67.5755 40.0103 67.9492 40.5298V39.1626H68.8926ZM65.0645 39.894C64.5312 39.894 64.0391 40.0262 63.5879 40.2905C63.1367 40.5503 62.7767 40.9172 62.5078 41.3911C62.2435 41.8651 62.1113 42.3664 62.1113 42.895C62.1113 43.4191 62.2458 43.9204 62.5146 44.3989C62.7835 44.8774 63.1436 45.2511 63.5947 45.52C64.0505 45.7843 64.5381 45.9165 65.0576 45.9165C65.5817 45.9165 66.0785 45.7843 66.5479 45.52C67.0173 45.2557 67.3773 44.8979 67.6279 44.4468C67.8831 43.9956 68.0107 43.4875 68.0107 42.9224C68.0107 42.061 67.7259 41.341 67.1562 40.7622C66.5911 40.1834 65.8939 39.894 65.0645 39.894ZM71.0527 39.1626H72.0098V40.4956C72.3926 39.9852 72.8164 39.6047 73.2812 39.354C73.7461 39.0988 74.252 38.9712 74.7988 38.9712C75.3548 38.9712 75.847 39.1125 76.2754 39.395C76.7083 39.6776 77.0273 40.0581 77.2324 40.5366C77.4375 41.0151 77.54 41.7603 77.54 42.772V46.6001H76.5898V43.0522C76.5898 42.1955 76.5534 41.6235 76.4805 41.3364C76.3665 40.8442 76.1523 40.4751 75.8379 40.229C75.5234 39.9784 75.1133 39.853 74.6074 39.853C74.0286 39.853 73.5091 40.0444 73.0488 40.4272C72.5931 40.8101 72.2923 41.284 72.1465 41.8491C72.0553 42.2183 72.0098 42.8927 72.0098 43.8726V46.6001H71.0527V39.1626ZM83.542 46.6001V36.2915H84.4922V40.4409C84.8932 39.9487 85.3421 39.5819 85.8389 39.3403C86.3356 39.0942 86.8802 38.9712 87.4727 38.9712C88.5254 38.9712 89.4232 39.354 90.166 40.1196C90.9134 40.8807 91.2871 41.8058 91.2871 42.895C91.2871 43.9705 90.9111 44.8888 90.1592 45.6499C89.4072 46.411 88.5026 46.7915 87.4453 46.7915C86.8392 46.7915 86.29 46.6616 85.7979 46.4019C85.3057 46.1421 84.8704 45.7524 84.4922 45.2329V46.6001H83.542ZM87.3701 45.8687C87.9033 45.8687 88.3955 45.7388 88.8467 45.479C89.2979 45.2147 89.6556 44.8455 89.9199 44.3716C90.1888 43.8976 90.3232 43.3963 90.3232 42.8677C90.3232 42.339 90.1888 41.8354 89.9199 41.3569C89.651 40.8784 89.2887 40.507 88.833 40.2427C88.3818 39.9738 87.8988 39.8394 87.3838 39.8394C86.8597 39.8394 86.3607 39.9738 85.8867 40.2427C85.4173 40.507 85.055 40.8647 84.7998 41.3159C84.5492 41.7671 84.4238 42.2752 84.4238 42.8403C84.4238 43.7017 84.7064 44.4217 85.2715 45.0005C85.8411 45.5793 86.5407 45.8687 87.3701 45.8687ZM99.2988 44.1323L100.105 44.5562C99.8411 45.0757 99.5358 45.495 99.1895 45.814C98.8431 46.133 98.4535 46.3768 98.0205 46.5454C97.5876 46.7095 97.0977 46.7915 96.5508 46.7915C95.3385 46.7915 94.3906 46.395 93.707 45.6021C93.0234 44.8045 92.6816 43.9045 92.6816 42.9019C92.6816 41.9585 92.971 41.1177 93.5498 40.3794C94.2835 39.4406 95.2656 38.9712 96.4961 38.9712C97.763 38.9712 98.7747 39.452 99.5312 40.4136C100.069 41.0926 100.342 41.9403 100.352 42.9565H93.666C93.6842 43.8224 93.96 44.5334 94.4932 45.0894C95.0264 45.6408 95.6849 45.9165 96.4688 45.9165C96.847 45.9165 97.2139 45.8504 97.5693 45.7183C97.9294 45.5861 98.2347 45.4106 98.4854 45.1919C98.736 44.9731 99.0072 44.62 99.2988 44.1323ZM99.2988 42.1294C99.1712 41.619 98.9844 41.2111 98.7383 40.9058C98.4967 40.6004 98.1755 40.3543 97.7744 40.1675C97.3734 39.9806 96.9518 39.8872 96.5098 39.8872C95.7806 39.8872 95.154 40.1219 94.6299 40.5913C94.2471 40.9331 93.9577 41.4458 93.7617 42.1294H99.2988ZM106.114 36.5444H108.384C109.847 36.5444 110.934 36.7267 111.645 37.0913C112.355 37.4513 112.941 38.0392 113.401 38.855C113.862 39.6707 114.092 40.6232 114.092 41.7124C114.092 42.4871 113.962 43.2004 113.702 43.8521C113.447 44.4992 113.091 45.0369 112.636 45.4653C112.185 45.8937 111.695 46.1899 111.166 46.354C110.637 46.5181 109.721 46.6001 108.418 46.6001H106.114V36.5444ZM108.021 38.3901V44.7271H108.91C109.785 44.7271 110.419 44.6268 110.811 44.4263C111.207 44.2257 111.531 43.8885 111.781 43.4146C112.032 42.9406 112.157 42.3573 112.157 41.6646C112.157 40.5981 111.859 39.771 111.262 39.1831C110.724 38.6545 109.86 38.3901 108.671 38.3901H108.021ZM115.917 36.5444H121.406V38.4175H117.817V40.2358H121.406V42.0747H117.817V44.7202H121.406V46.6001H115.917V36.5444ZM122.432 36.5444H124.4L126.93 43.688L129.493 36.5444H131.462L127.839 46.6001H125.993L122.432 36.5444ZM133.007 36.5444H138.496V38.4175H134.907V40.2358H138.496V42.0747H134.907V44.7202H138.496V46.6001H133.007V36.5444ZM140.287 36.5444H142.201V44.7749H144.99V46.6001H140.287V36.5444ZM151.204 36.2915C152.626 36.2915 153.847 36.8065 154.868 37.8364C155.894 38.8664 156.406 40.1219 156.406 41.603C156.406 43.0705 155.9 44.3123 154.889 45.3286C153.882 46.3449 152.658 46.853 151.218 46.853C149.709 46.853 148.456 46.3312 147.458 45.2876C146.46 44.244 145.961 43.0044 145.961 41.5688C145.961 40.6073 146.193 39.7231 146.658 38.9165C147.123 38.1099 147.761 37.4718 148.572 37.0024C149.388 36.5285 150.265 36.2915 151.204 36.2915ZM151.184 38.1646C150.254 38.1646 149.472 38.4881 148.839 39.1353C148.205 39.7824 147.889 40.605 147.889 41.603C147.889 42.715 148.287 43.5946 149.085 44.2417C149.705 44.7476 150.416 45.0005 151.218 45.0005C152.125 45.0005 152.897 44.6724 153.535 44.0161C154.173 43.3599 154.492 42.5509 154.492 41.5894C154.492 40.6323 154.171 39.8234 153.528 39.1626C152.886 38.4972 152.104 38.1646 151.184 38.1646ZM158.204 36.5444H160.234C161.333 36.5444 162.123 36.647 162.606 36.8521C163.094 37.0526 163.477 37.3807 163.755 37.8364C164.037 38.2876 164.179 38.8299 164.179 39.4634C164.179 40.1652 163.994 40.7485 163.625 41.2134C163.26 41.6782 162.764 42.0018 162.135 42.1841C161.766 42.2889 161.093 42.3413 160.118 42.3413V46.6001H158.204V36.5444ZM160.118 40.4751H160.727C161.205 40.4751 161.538 40.4409 161.725 40.3726C161.911 40.3042 162.057 40.1925 162.162 40.0376C162.271 39.8781 162.326 39.6867 162.326 39.4634C162.326 39.076 162.176 38.7935 161.875 38.6157C161.656 38.4836 161.251 38.4175 160.658 38.4175H160.118V40.4751ZM166.065 36.5444H171.555V38.4175H167.966V40.2358H171.555V42.0747H167.966V44.7202H171.555V46.6001H166.065V36.5444ZM173.353 36.5444H175.622C177.085 36.5444 178.172 36.7267 178.883 37.0913C179.594 37.4513 180.179 38.0392 180.64 38.855C181.1 39.6707 181.33 40.6232 181.33 41.7124C181.33 42.4871 181.2 43.2004 180.94 43.8521C180.685 44.4992 180.33 45.0369 179.874 45.4653C179.423 45.8937 178.933 46.1899 178.404 46.354C177.876 46.5181 176.96 46.6001 175.656 46.6001H173.353V36.5444ZM175.26 38.3901V44.7271H176.148C177.023 44.7271 177.657 44.6268 178.049 44.4263C178.445 44.2257 178.769 43.8885 179.02 43.4146C179.27 42.9406 179.396 42.3573 179.396 41.6646C179.396 40.5981 179.097 39.771 178.5 39.1831C177.962 38.6545 177.099 38.3901 175.909 38.3901H175.26Z" fill="#126443"/>
<path d="M231 27.6001C213.587 27.6001 218.824 43.6002 192 43.6001" stroke="#126443" stroke-width="3" stroke-linecap="round"/>
<path d="M231 27.6001C214.463 27.6001 218.824 11.6 192 11.6001" stroke="#126443" stroke-width="3" stroke-linecap="round"/>
<path d="M242.23 6.54443H247.993V7.53564H243.235V10.6802H247.952V11.6646H243.235V15.6089H247.952V16.6001H242.23V6.54443ZM249.572 9.1626H250.529V10.4956C250.912 9.98519 251.336 9.60465 251.801 9.354C252.266 9.0988 252.771 8.97119 253.318 8.97119C253.874 8.97119 254.367 9.11247 254.795 9.39502C255.228 9.67757 255.547 10.0581 255.752 10.5366C255.957 11.0151 256.06 11.7603 256.06 12.772V16.6001H255.109V13.0522C255.109 12.1955 255.073 11.6235 255 11.3364C254.886 10.8442 254.672 10.4751 254.357 10.229C254.043 9.97835 253.633 9.85303 253.127 9.85303C252.548 9.85303 252.029 10.0444 251.568 10.4272C251.113 10.8101 250.812 11.284 250.666 11.8491C250.575 12.2183 250.529 12.8927 250.529 13.8726V16.6001H249.572V9.1626ZM265.527 9.1626V16.6001H264.584V15.3218C264.183 15.8094 263.732 16.1763 263.23 16.4224C262.734 16.6685 262.189 16.7915 261.597 16.7915C260.544 16.7915 259.644 16.411 258.896 15.6499C258.154 14.8843 257.782 13.9546 257.782 12.8608C257.782 11.7899 258.158 10.8739 258.91 10.1128C259.662 9.35173 260.567 8.97119 261.624 8.97119C262.235 8.97119 262.786 9.10107 263.278 9.36084C263.775 9.62061 264.21 10.0103 264.584 10.5298V9.1626H265.527ZM261.699 9.89404C261.166 9.89404 260.674 10.0262 260.223 10.2905C259.771 10.5503 259.411 10.9172 259.143 11.3911C258.878 11.8651 258.746 12.3664 258.746 12.895C258.746 13.4191 258.881 13.9204 259.149 14.3989C259.418 14.8774 259.778 15.2511 260.229 15.52C260.685 15.7843 261.173 15.9165 261.692 15.9165C262.216 15.9165 262.713 15.7843 263.183 15.52C263.652 15.2557 264.012 14.8979 264.263 14.4468C264.518 13.9956 264.646 13.4875 264.646 12.9224C264.646 12.061 264.361 11.341 263.791 10.7622C263.226 10.1834 262.529 9.89404 261.699 9.89404ZM267.749 16.6001V6.2915H268.699V10.4409C269.1 9.94873 269.549 9.58187 270.046 9.34033C270.543 9.09424 271.087 8.97119 271.68 8.97119C272.732 8.97119 273.63 9.354 274.373 10.1196C275.12 10.8807 275.494 11.8058 275.494 12.895C275.494 13.9705 275.118 14.8888 274.366 15.6499C273.614 16.411 272.71 16.7915 271.652 16.7915C271.046 16.7915 270.497 16.6616 270.005 16.4019C269.513 16.1421 269.077 15.7524 268.699 15.2329V16.6001H267.749ZM271.577 15.8687C272.11 15.8687 272.603 15.7388 273.054 15.479C273.505 15.2147 273.863 14.8455 274.127 14.3716C274.396 13.8976 274.53 13.3963 274.53 12.8677C274.53 12.339 274.396 11.8354 274.127 11.3569C273.858 10.8784 273.496 10.507 273.04 10.2427C272.589 9.9738 272.106 9.83936 271.591 9.83936C271.067 9.83936 270.568 9.9738 270.094 10.2427C269.624 10.507 269.262 10.8647 269.007 11.3159C268.756 11.7671 268.631 12.2752 268.631 12.8403C268.631 13.7017 268.913 14.4217 269.479 15.0005C270.048 15.5793 270.748 15.8687 271.577 15.8687ZM277.101 6.2915H278.058V16.6001H277.101V6.2915ZM286.309 14.1323L287.115 14.5562C286.851 15.0757 286.546 15.495 286.199 15.814C285.853 16.133 285.463 16.3768 285.03 16.5454C284.597 16.7095 284.107 16.7915 283.561 16.7915C282.348 16.7915 281.4 16.395 280.717 15.6021C280.033 14.8045 279.691 13.9045 279.691 12.9019C279.691 11.9585 279.981 11.1177 280.56 10.3794C281.293 9.44059 282.275 8.97119 283.506 8.97119C284.773 8.97119 285.785 9.45199 286.541 10.4136C287.079 11.0926 287.352 11.9403 287.361 12.9565H280.676C280.694 13.8224 280.97 14.5334 281.503 15.0894C282.036 15.6408 282.695 15.9165 283.479 15.9165C283.857 15.9165 284.224 15.8504 284.579 15.7183C284.939 15.5861 285.244 15.4106 285.495 15.1919C285.746 14.9731 286.017 14.62 286.309 14.1323ZM286.309 12.1294C286.181 11.619 285.994 11.2111 285.748 10.9058C285.507 10.6004 285.185 10.3543 284.784 10.1675C284.383 9.98063 283.962 9.88721 283.52 9.88721C282.79 9.88721 282.164 10.1219 281.64 10.5913C281.257 10.9331 280.967 11.4458 280.771 12.1294H286.309ZM296.576 6.2915V16.6001H295.633V15.3218C295.232 15.8094 294.781 16.1763 294.279 16.4224C293.783 16.6685 293.238 16.7915 292.646 16.7915C291.593 16.7915 290.693 16.411 289.945 15.6499C289.202 14.8843 288.831 13.9546 288.831 12.8608C288.831 11.7899 289.207 10.8739 289.959 10.1128C290.711 9.35173 291.616 8.97119 292.673 8.97119C293.284 8.97119 293.835 9.10107 294.327 9.36084C294.824 9.62061 295.259 10.0103 295.633 10.5298V6.2915H296.576ZM292.748 9.89404C292.215 9.89404 291.723 10.0262 291.271 10.2905C290.82 10.5503 290.46 10.9172 290.191 11.3911C289.927 11.8651 289.795 12.3664 289.795 12.895C289.795 13.4191 289.929 13.9204 290.198 14.3989C290.467 14.8774 290.827 15.2511 291.278 15.52C291.734 15.7843 292.222 15.9165 292.741 15.9165C293.265 15.9165 293.762 15.7843 294.231 15.52C294.701 15.2557 295.061 14.8979 295.312 14.4468C295.567 13.9956 295.694 13.4875 295.694 12.9224C295.694 12.061 295.41 11.341 294.84 10.7622C294.275 10.1834 293.577 9.89404 292.748 9.89404ZM303.467 6.40088H304.431V9.1626H305.948V9.98291H304.431V16.6001H303.467V9.98291H302.161V9.1626H303.467V6.40088ZM307.377 6.2915H308.334V10.4956C308.721 9.98519 309.147 9.60465 309.612 9.354C310.077 9.0988 310.581 8.97119 311.123 8.97119C311.679 8.97119 312.171 9.11247 312.6 9.39502C313.033 9.67757 313.352 10.0581 313.557 10.5366C313.762 11.0106 313.864 11.7557 313.864 12.772V16.6001H312.907V13.0522C312.907 12.1955 312.873 11.6235 312.805 11.3364C312.686 10.8442 312.47 10.4751 312.155 10.229C311.845 9.97835 311.438 9.85303 310.932 9.85303C310.353 9.85303 309.833 10.0444 309.373 10.4272C308.917 10.8101 308.617 11.284 308.471 11.8491C308.38 12.2137 308.334 12.8882 308.334 13.8726V16.6001H307.377V6.2915ZM315.56 9.1626H316.537V10.2495C316.829 9.82113 317.136 9.50212 317.46 9.29248C317.784 9.07829 318.121 8.97119 318.472 8.97119C318.736 8.97119 319.019 9.0555 319.319 9.22412L318.82 10.0308C318.62 9.94417 318.451 9.90088 318.314 9.90088C317.995 9.90088 317.688 10.033 317.392 10.2974C317.095 10.5571 316.87 10.9627 316.715 11.5142C316.596 11.938 316.537 12.7948 316.537 14.0845V16.6001H315.56V9.1626ZM323.653 8.97119C324.797 8.97119 325.745 9.3859 326.497 10.2153C327.181 10.9718 327.522 11.8674 327.522 12.9019C327.522 13.9409 327.16 14.8501 326.436 15.6294C325.715 16.4041 324.788 16.7915 323.653 16.7915C322.514 16.7915 321.582 16.4041 320.857 15.6294C320.137 14.8501 319.777 13.9409 319.777 12.9019C319.777 11.8719 320.119 10.9787 320.803 10.2222C321.555 9.38818 322.505 8.97119 323.653 8.97119ZM323.653 9.90771C322.86 9.90771 322.179 10.2017 321.609 10.7896C321.04 11.3774 320.755 12.0884 320.755 12.9224C320.755 13.4601 320.885 13.9614 321.145 14.4263C321.404 14.8911 321.755 15.2511 322.197 15.5063C322.639 15.757 323.125 15.8823 323.653 15.8823C324.182 15.8823 324.667 15.757 325.109 15.5063C325.551 15.2511 325.902 14.8911 326.162 14.4263C326.422 13.9614 326.552 13.4601 326.552 12.9224C326.552 12.0884 326.265 11.3774 325.69 10.7896C325.121 10.2017 324.442 9.90771 323.653 9.90771ZM329.184 9.1626H330.147V12.6353C330.147 13.4829 330.193 14.0662 330.284 14.3853C330.421 14.841 330.681 15.201 331.063 15.4653C331.451 15.7297 331.911 15.8618 332.444 15.8618C332.978 15.8618 333.429 15.7342 333.798 15.479C334.172 15.2192 334.429 14.8797 334.57 14.4604C334.666 14.1733 334.714 13.5649 334.714 12.6353V9.1626H335.691V12.813C335.691 13.8384 335.571 14.6108 335.329 15.1304C335.092 15.6499 334.732 16.0578 334.249 16.354C333.771 16.6457 333.169 16.7915 332.444 16.7915C331.72 16.7915 331.114 16.6457 330.626 16.354C330.143 16.0578 329.781 15.6476 329.539 15.1235C329.302 14.5949 329.184 13.8019 329.184 12.7446V9.1626ZM344.229 9.1626H345.193V15.0894C345.193 16.133 345.102 16.8963 344.92 17.3794C344.669 18.063 344.234 18.5894 343.614 18.9585C342.994 19.3276 342.249 19.5122 341.379 19.5122C340.741 19.5122 340.167 19.4211 339.656 19.2388C339.15 19.061 338.738 18.8195 338.419 18.5142C338.1 18.2134 337.806 17.7713 337.537 17.188H338.576C338.859 17.6802 339.223 18.0448 339.67 18.2817C340.117 18.5187 340.67 18.6372 341.331 18.6372C341.983 18.6372 342.532 18.5142 342.979 18.2681C343.43 18.0265 343.751 17.7212 343.942 17.3521C344.134 16.9829 344.229 16.3882 344.229 15.5679V15.1851C343.869 15.6408 343.43 15.9917 342.91 16.2378C342.391 16.4793 341.839 16.6001 341.256 16.6001C340.572 16.6001 339.93 16.4315 339.328 16.0942C338.727 15.7524 338.262 15.2944 337.934 14.7202C337.605 14.146 337.441 13.5148 337.441 12.8267C337.441 12.1385 337.612 11.4982 337.954 10.9058C338.296 10.3088 338.768 9.83708 339.369 9.49072C339.975 9.14437 340.613 8.97119 341.283 8.97119C341.839 8.97119 342.356 9.0874 342.835 9.31982C343.318 9.54769 343.783 9.92594 344.229 10.4546V9.1626ZM341.406 9.89404C340.864 9.89404 340.36 10.0262 339.896 10.2905C339.431 10.5503 339.066 10.9126 338.802 11.3774C338.537 11.8377 338.405 12.3368 338.405 12.8745C338.405 13.6903 338.679 14.3647 339.226 14.8979C339.772 15.4312 340.481 15.6978 341.352 15.6978C342.231 15.6978 342.938 15.4334 343.471 14.9048C344.008 14.3761 344.277 13.6812 344.277 12.8198C344.277 12.2593 344.154 11.7603 343.908 11.3228C343.662 10.8807 343.313 10.5321 342.862 10.2769C342.411 10.0216 341.926 9.89404 341.406 9.89404ZM347.244 6.2915H348.201V10.4956C348.589 9.98519 349.015 9.60465 349.479 9.354C349.944 9.0988 350.448 8.97119 350.99 8.97119C351.546 8.97119 352.038 9.11247 352.467 9.39502C352.9 9.67757 353.219 10.0581 353.424 10.5366C353.629 11.0106 353.731 11.7557 353.731 12.772V16.6001H352.774V13.0522C352.774 12.1955 352.74 11.6235 352.672 11.3364C352.553 10.8442 352.337 10.4751 352.022 10.229C351.713 9.97835 351.305 9.85303 350.799 9.85303C350.22 9.85303 349.701 10.0444 349.24 10.4272C348.785 10.8101 348.484 11.284 348.338 11.8491C348.247 12.2137 348.201 12.8882 348.201 13.8726V16.6001H347.244V6.2915ZM366.077 9.1626H367.041V15.0894C367.041 16.133 366.95 16.8963 366.768 17.3794C366.517 18.063 366.082 18.5894 365.462 18.9585C364.842 19.3276 364.097 19.5122 363.227 19.5122C362.589 19.5122 362.014 19.4211 361.504 19.2388C360.998 19.061 360.586 18.8195 360.267 18.5142C359.948 18.2134 359.654 17.7713 359.385 17.188H360.424C360.706 17.6802 361.071 18.0448 361.518 18.2817C361.964 18.5187 362.518 18.6372 363.179 18.6372C363.83 18.6372 364.38 18.5142 364.826 18.2681C365.277 18.0265 365.599 17.7212 365.79 17.3521C365.981 16.9829 366.077 16.3882 366.077 15.5679V15.1851C365.717 15.6408 365.277 15.9917 364.758 16.2378C364.238 16.4793 363.687 16.6001 363.104 16.6001C362.42 16.6001 361.777 16.4315 361.176 16.0942C360.574 15.7524 360.109 15.2944 359.781 14.7202C359.453 14.146 359.289 13.5148 359.289 12.8267C359.289 12.1385 359.46 11.4982 359.802 10.9058C360.144 10.3088 360.615 9.83708 361.217 9.49072C361.823 9.14437 362.461 8.97119 363.131 8.97119C363.687 8.97119 364.204 9.0874 364.683 9.31982C365.166 9.54769 365.631 9.92594 366.077 10.4546V9.1626ZM363.254 9.89404C362.712 9.89404 362.208 10.0262 361.743 10.2905C361.278 10.5503 360.914 10.9126 360.649 11.3774C360.385 11.8377 360.253 12.3368 360.253 12.8745C360.253 13.6903 360.526 14.3647 361.073 14.8979C361.62 15.4312 362.329 15.6978 363.199 15.6978C364.079 15.6978 364.785 15.4334 365.318 14.9048C365.856 14.3761 366.125 13.6812 366.125 12.8198C366.125 12.2593 366.002 11.7603 365.756 11.3228C365.51 10.8807 365.161 10.5321 364.71 10.2769C364.259 10.0216 363.773 9.89404 363.254 9.89404ZM368.729 9.1626H369.707V10.2495C369.999 9.82113 370.306 9.50212 370.63 9.29248C370.953 9.07829 371.291 8.97119 371.642 8.97119C371.906 8.97119 372.188 9.0555 372.489 9.22412L371.99 10.0308C371.79 9.94417 371.621 9.90088 371.484 9.90088C371.165 9.90088 370.858 10.033 370.562 10.2974C370.265 10.5571 370.04 10.9627 369.885 11.5142C369.766 11.938 369.707 12.7948 369.707 14.0845V16.6001H368.729V9.1626ZM379.564 14.1323L380.371 14.5562C380.107 15.0757 379.801 15.495 379.455 15.814C379.109 16.133 378.719 16.3768 378.286 16.5454C377.853 16.7095 377.363 16.7915 376.816 16.7915C375.604 16.7915 374.656 16.395 373.973 15.6021C373.289 14.8045 372.947 13.9045 372.947 12.9019C372.947 11.9585 373.237 11.1177 373.815 10.3794C374.549 9.44059 375.531 8.97119 376.762 8.97119C378.029 8.97119 379.04 9.45199 379.797 10.4136C380.335 11.0926 380.608 11.9403 380.617 12.9565H373.932C373.95 13.8224 374.226 14.5334 374.759 15.0894C375.292 15.6408 375.951 15.9165 376.734 15.9165C377.113 15.9165 377.479 15.8504 377.835 15.7183C378.195 15.5861 378.5 15.4106 378.751 15.1919C379.002 14.9731 379.273 14.62 379.564 14.1323ZM379.564 12.1294C379.437 11.619 379.25 11.2111 379.004 10.9058C378.762 10.6004 378.441 10.3543 378.04 10.1675C377.639 9.98063 377.217 9.88721 376.775 9.88721C376.046 9.88721 375.42 10.1219 374.896 10.5913C374.513 10.9331 374.223 11.4458 374.027 12.1294H379.564ZM389.818 9.1626V16.6001H388.875V15.3218C388.474 15.8094 388.023 16.1763 387.521 16.4224C387.025 16.6685 386.48 16.7915 385.888 16.7915C384.835 16.7915 383.935 16.411 383.188 15.6499C382.445 14.8843 382.073 13.9546 382.073 12.8608C382.073 11.7899 382.449 10.8739 383.201 10.1128C383.953 9.35173 384.858 8.97119 385.915 8.97119C386.526 8.97119 387.077 9.10107 387.569 9.36084C388.066 9.62061 388.501 10.0103 388.875 10.5298V9.1626H389.818ZM385.99 9.89404C385.457 9.89404 384.965 10.0262 384.514 10.2905C384.062 10.5503 383.702 10.9172 383.434 11.3911C383.169 11.8651 383.037 12.3664 383.037 12.895C383.037 13.4191 383.172 13.9204 383.44 14.3989C383.709 14.8774 384.069 15.2511 384.521 15.52C384.976 15.7843 385.464 15.9165 385.983 15.9165C386.507 15.9165 387.004 15.7843 387.474 15.52C387.943 15.2557 388.303 14.8979 388.554 14.4468C388.809 13.9956 388.937 13.4875 388.937 12.9224C388.937 12.061 388.652 11.341 388.082 10.7622C387.517 10.1834 386.82 9.89404 385.99 9.89404ZM392.812 6.40088H393.776V9.1626H395.294V9.98291H393.776V16.6001H392.812V9.98291H391.507V9.1626H392.812V6.40088ZM249.285 26.7075L248.526 27.1792C247.87 26.3088 246.975 25.8735 245.84 25.8735C244.933 25.8735 244.179 26.1652 243.577 26.7485C242.98 27.3319 242.682 28.0405 242.682 28.8745C242.682 29.4168 242.818 29.9272 243.092 30.4058C243.37 30.8843 243.748 31.2557 244.227 31.52C244.71 31.7843 245.25 31.9165 245.847 31.9165C246.94 31.9165 247.834 31.4813 248.526 30.6108L249.285 31.1099C248.93 31.6431 248.451 32.0578 247.85 32.354C247.253 32.6457 246.571 32.7915 245.806 32.7915C244.63 32.7915 243.655 32.4178 242.88 31.6704C242.105 30.923 241.718 30.0138 241.718 28.9429C241.718 28.2228 241.898 27.5552 242.258 26.9399C242.622 26.3201 243.121 25.8371 243.755 25.4907C244.388 25.1444 245.097 24.9712 245.881 24.9712C246.373 24.9712 246.847 25.0464 247.303 25.1968C247.763 25.3472 248.153 25.5431 248.472 25.7847C248.791 26.0262 249.062 26.3338 249.285 26.7075ZM254.651 24.9712C255.795 24.9712 256.743 25.3859 257.495 26.2153C258.179 26.9718 258.521 27.8674 258.521 28.9019C258.521 29.9409 258.158 30.8501 257.434 31.6294C256.714 32.4041 255.786 32.7915 254.651 32.7915C253.512 32.7915 252.58 32.4041 251.855 31.6294C251.135 30.8501 250.775 29.9409 250.775 28.9019C250.775 27.8719 251.117 26.9787 251.801 26.2222C252.553 25.3882 253.503 24.9712 254.651 24.9712ZM254.651 25.9077C253.858 25.9077 253.177 26.2017 252.607 26.7896C252.038 27.3774 251.753 28.0884 251.753 28.9224C251.753 29.4601 251.883 29.9614 252.143 30.4263C252.402 30.8911 252.753 31.2511 253.195 31.5063C253.637 31.757 254.123 31.8823 254.651 31.8823C255.18 31.8823 255.665 31.757 256.107 31.5063C256.549 31.2511 256.9 30.8911 257.16 30.4263C257.42 29.9614 257.55 29.4601 257.55 28.9224C257.55 28.0884 257.263 27.3774 256.688 26.7896C256.119 26.2017 255.44 25.9077 254.651 25.9077ZM260.305 25.1626H261.262V26.4956C261.645 25.9852 262.068 25.6047 262.533 25.354C262.998 25.0988 263.504 24.9712 264.051 24.9712C264.607 24.9712 265.099 25.1125 265.527 25.395C265.96 25.6776 266.279 26.0581 266.484 26.5366C266.689 27.0151 266.792 27.7603 266.792 28.772V32.6001H265.842V29.0522C265.842 28.1955 265.805 27.6235 265.732 27.3364C265.618 26.8442 265.404 26.4751 265.09 26.229C264.775 25.9784 264.365 25.853 263.859 25.853C263.281 25.853 262.761 26.0444 262.301 26.4272C261.845 26.8101 261.544 27.284 261.398 27.8491C261.307 28.2183 261.262 28.8927 261.262 29.8726V32.6001H260.305V25.1626ZM268.146 25.1626H269.164L271.652 30.5767L274.12 25.1626H275.146L271.741 32.6001H271.57L268.146 25.1626ZM282.877 30.1323L283.684 30.5562C283.419 31.0757 283.114 31.495 282.768 31.814C282.421 32.133 282.032 32.3768 281.599 32.5454C281.166 32.7095 280.676 32.7915 280.129 32.7915C278.917 32.7915 277.969 32.395 277.285 31.6021C276.602 30.8045 276.26 29.9045 276.26 28.9019C276.26 27.9585 276.549 27.1177 277.128 26.3794C277.862 25.4406 278.844 24.9712 280.074 24.9712C281.341 24.9712 282.353 25.452 283.109 26.4136C283.647 27.0926 283.921 27.9403 283.93 28.9565H277.244C277.262 29.8224 277.538 30.5334 278.071 31.0894C278.604 31.6408 279.263 31.9165 280.047 31.9165C280.425 31.9165 280.792 31.8504 281.147 31.7183C281.507 31.5861 281.813 31.4106 282.063 31.1919C282.314 30.9731 282.585 30.62 282.877 30.1323ZM282.877 28.1294C282.749 27.619 282.562 27.2111 282.316 26.9058C282.075 26.6004 281.754 26.3543 281.353 26.1675C280.951 25.9806 280.53 25.8872 280.088 25.8872C279.359 25.8872 278.732 26.1219 278.208 26.5913C277.825 26.9331 277.536 27.4458 277.34 28.1294H282.877ZM285.358 25.1626H286.336V26.2495C286.628 25.8211 286.935 25.5021 287.259 25.2925C287.582 25.0783 287.92 24.9712 288.271 24.9712C288.535 24.9712 288.817 25.0555 289.118 25.2241L288.619 26.0308C288.419 25.9442 288.25 25.9009 288.113 25.9009C287.794 25.9009 287.487 26.033 287.19 26.2974C286.894 26.5571 286.669 26.9627 286.514 27.5142C286.395 27.938 286.336 28.7948 286.336 30.0845V32.6001H285.358V25.1626ZM293.671 25.9761L293.056 26.6118C292.545 26.1151 292.046 25.8667 291.559 25.8667C291.249 25.8667 290.982 25.9692 290.759 26.1743C290.54 26.3794 290.431 26.6187 290.431 26.8921C290.431 27.1336 290.522 27.3638 290.704 27.5825C290.886 27.8058 291.269 28.0679 291.853 28.3687C292.563 28.7378 293.047 29.0933 293.302 29.4351C293.552 29.7814 293.678 30.1711 293.678 30.604C293.678 31.2147 293.464 31.7319 293.035 32.1558C292.607 32.5796 292.071 32.7915 291.429 32.7915C291 32.7915 290.59 32.6981 290.198 32.5112C289.811 32.3244 289.49 32.0669 289.234 31.7388L289.836 31.0552C290.324 31.6066 290.841 31.8823 291.388 31.8823C291.771 31.8823 292.096 31.7593 292.365 31.5132C292.634 31.2671 292.769 30.9777 292.769 30.645C292.769 30.3716 292.68 30.1278 292.502 29.9136C292.324 29.7039 291.923 29.4396 291.299 29.1206C290.629 28.7743 290.173 28.4325 289.932 28.0952C289.69 27.758 289.569 27.3729 289.569 26.9399C289.569 26.3748 289.761 25.9054 290.144 25.5317C290.531 25.158 291.019 24.9712 291.606 24.9712C292.29 24.9712 292.978 25.3062 293.671 25.9761ZM302.783 25.1626V32.6001H301.84V31.3218C301.439 31.8094 300.988 32.1763 300.486 32.4224C299.99 32.6685 299.445 32.7915 298.853 32.7915C297.8 32.7915 296.9 32.411 296.152 31.6499C295.41 30.8843 295.038 29.9546 295.038 28.8608C295.038 27.7899 295.414 26.8739 296.166 26.1128C296.918 25.3517 297.823 24.9712 298.88 24.9712C299.491 24.9712 300.042 25.1011 300.534 25.3608C301.031 25.6206 301.466 26.0103 301.84 26.5298V25.1626H302.783ZM298.955 25.894C298.422 25.894 297.93 26.0262 297.479 26.2905C297.027 26.5503 296.667 26.9172 296.398 27.3911C296.134 27.8651 296.002 28.3664 296.002 28.895C296.002 29.4191 296.136 29.9204 296.405 30.3989C296.674 30.8774 297.034 31.2511 297.485 31.52C297.941 31.7843 298.429 31.9165 298.948 31.9165C299.472 31.9165 299.969 31.7843 300.438 31.52C300.908 31.2557 301.268 30.8979 301.519 30.4468C301.774 29.9956 301.901 29.4875 301.901 28.9224C301.901 28.061 301.617 27.341 301.047 26.7622C300.482 26.1834 299.785 25.894 298.955 25.894ZM305.777 22.4009H306.741V25.1626H308.259V25.9829H306.741V32.6001H305.777V25.9829H304.472V25.1626H305.777V22.4009ZM310.022 22.1001C310.241 22.1001 310.428 22.1776 310.583 22.3325C310.738 22.4875 310.815 22.6743 310.815 22.8931C310.815 23.1073 310.738 23.2918 310.583 23.4468C310.428 23.6017 310.241 23.6792 310.022 23.6792C309.808 23.6792 309.624 23.6017 309.469 23.4468C309.314 23.2918 309.236 23.1073 309.236 22.8931C309.236 22.6743 309.314 22.4875 309.469 22.3325C309.624 22.1776 309.808 22.1001 310.022 22.1001ZM309.544 25.1626H310.508V32.6001H309.544V25.1626ZM316.011 24.9712C317.155 24.9712 318.103 25.3859 318.854 26.2153C319.538 26.9718 319.88 27.8674 319.88 28.9019C319.88 29.9409 319.518 30.8501 318.793 31.6294C318.073 32.4041 317.146 32.7915 316.011 32.7915C314.871 32.7915 313.939 32.4041 313.215 31.6294C312.495 30.8501 312.135 29.9409 312.135 28.9019C312.135 27.8719 312.477 26.9787 313.16 26.2222C313.912 25.3882 314.862 24.9712 316.011 24.9712ZM316.011 25.9077C315.218 25.9077 314.536 26.2017 313.967 26.7896C313.397 27.3774 313.112 28.0884 313.112 28.9224C313.112 29.4601 313.242 29.9614 313.502 30.4263C313.762 30.8911 314.113 31.2511 314.555 31.5063C314.997 31.757 315.482 31.8823 316.011 31.8823C316.539 31.8823 317.025 31.757 317.467 31.5063C317.909 31.2511 318.26 30.8911 318.52 30.4263C318.779 29.9614 318.909 29.4601 318.909 28.9224C318.909 28.0884 318.622 27.3774 318.048 26.7896C317.478 26.2017 316.799 25.9077 316.011 25.9077ZM321.664 25.1626H322.621V26.4956C323.004 25.9852 323.428 25.6047 323.893 25.354C324.357 25.0988 324.863 24.9712 325.41 24.9712C325.966 24.9712 326.458 25.1125 326.887 25.395C327.32 25.6776 327.639 26.0581 327.844 26.5366C328.049 27.0151 328.151 27.7603 328.151 28.772V32.6001H327.201V29.0522C327.201 28.1955 327.165 27.6235 327.092 27.3364C326.978 26.8442 326.764 26.4751 326.449 26.229C326.135 25.9784 325.725 25.853 325.219 25.853C324.64 25.853 324.12 26.0444 323.66 26.4272C323.204 26.8101 322.904 27.284 322.758 27.8491C322.667 28.2183 322.621 28.8927 322.621 29.8726V32.6001H321.664V25.1626ZM333.948 25.9761L333.333 26.6118C332.823 26.1151 332.324 25.8667 331.836 25.8667C331.526 25.8667 331.259 25.9692 331.036 26.1743C330.817 26.3794 330.708 26.6187 330.708 26.8921C330.708 27.1336 330.799 27.3638 330.981 27.5825C331.164 27.8058 331.547 28.0679 332.13 28.3687C332.841 28.7378 333.324 29.0933 333.579 29.4351C333.83 29.7814 333.955 30.1711 333.955 30.604C333.955 31.2147 333.741 31.7319 333.312 32.1558C332.884 32.5796 332.349 32.7915 331.706 32.7915C331.278 32.7915 330.868 32.6981 330.476 32.5112C330.088 32.3244 329.767 32.0669 329.512 31.7388L330.113 31.0552C330.601 31.6066 331.118 31.8823 331.665 31.8823C332.048 31.8823 332.374 31.7593 332.643 31.5132C332.911 31.2671 333.046 30.9777 333.046 30.645C333.046 30.3716 332.957 30.1278 332.779 29.9136C332.602 29.7039 332.201 29.4396 331.576 29.1206C330.906 28.7743 330.451 28.4325 330.209 28.0952C329.967 27.758 329.847 27.3729 329.847 26.9399C329.847 26.3748 330.038 25.9054 330.421 25.5317C330.808 25.158 331.296 24.9712 331.884 24.9712C332.567 24.9712 333.256 25.3062 333.948 25.9761ZM346.943 25.1626V32.6001H346V31.3218C345.599 31.8094 345.148 32.1763 344.646 32.4224C344.15 32.6685 343.605 32.7915 343.013 32.7915C341.96 32.7915 341.06 32.411 340.312 31.6499C339.57 30.8843 339.198 29.9546 339.198 28.8608C339.198 27.7899 339.574 26.8739 340.326 26.1128C341.078 25.3517 341.983 24.9712 343.04 24.9712C343.651 24.9712 344.202 25.1011 344.694 25.3608C345.191 25.6206 345.626 26.0103 346 26.5298V25.1626H346.943ZM343.115 25.894C342.582 25.894 342.09 26.0262 341.639 26.2905C341.188 26.5503 340.827 26.9172 340.559 27.3911C340.294 27.8651 340.162 28.3664 340.162 28.895C340.162 29.4191 340.297 29.9204 340.565 30.3989C340.834 30.8774 341.194 31.2511 341.646 31.52C342.101 31.7843 342.589 31.9165 343.108 31.9165C343.632 31.9165 344.129 31.7843 344.599 31.52C345.068 31.2557 345.428 30.8979 345.679 30.4468C345.934 29.9956 346.062 29.4875 346.062 28.9224C346.062 28.061 345.777 27.341 345.207 26.7622C344.642 26.1834 343.945 25.894 343.115 25.894ZM349.104 25.1626H350.061V26.4956C350.443 25.9852 350.867 25.6047 351.332 25.354C351.797 25.0988 352.303 24.9712 352.85 24.9712C353.406 24.9712 353.898 25.1125 354.326 25.395C354.759 25.6776 355.078 26.0581 355.283 26.5366C355.488 27.0151 355.591 27.7603 355.591 28.772V32.6001H354.641V29.0522C354.641 28.1955 354.604 27.6235 354.531 27.3364C354.417 26.8442 354.203 26.4751 353.889 26.229C353.574 25.9784 353.164 25.853 352.658 25.853C352.079 25.853 351.56 26.0444 351.1 26.4272C350.644 26.8101 350.343 27.284 350.197 27.8491C350.106 28.2183 350.061 28.8927 350.061 29.8726V32.6001H349.104V25.1626ZM365.072 22.2915V32.6001H364.129V31.3218C363.728 31.8094 363.277 32.1763 362.775 32.4224C362.279 32.6685 361.734 32.7915 361.142 32.7915C360.089 32.7915 359.189 32.411 358.441 31.6499C357.699 30.8843 357.327 29.9546 357.327 28.8608C357.327 27.7899 357.703 26.8739 358.455 26.1128C359.207 25.3517 360.112 24.9712 361.169 24.9712C361.78 24.9712 362.331 25.1011 362.823 25.3608C363.32 25.6206 363.755 26.0103 364.129 26.5298V22.2915H365.072ZM361.244 25.894C360.711 25.894 360.219 26.0262 359.768 26.2905C359.316 26.5503 358.956 26.9172 358.688 27.3911C358.423 27.8651 358.291 28.3664 358.291 28.895C358.291 29.4191 358.425 29.9204 358.694 30.3989C358.963 30.8774 359.323 31.2511 359.774 31.52C360.23 31.7843 360.718 31.9165 361.237 31.9165C361.761 31.9165 362.258 31.7843 362.728 31.52C363.197 31.2557 363.557 30.8979 363.808 30.4468C364.063 29.9956 364.19 29.4875 364.19 28.9224C364.19 28.061 363.906 27.341 363.336 26.7622C362.771 26.1834 362.074 25.894 361.244 25.894ZM378.348 26.7075L377.589 27.1792C376.933 26.3088 376.037 25.8735 374.902 25.8735C373.995 25.8735 373.241 26.1652 372.64 26.7485C372.043 27.3319 371.744 28.0405 371.744 28.8745C371.744 29.4168 371.881 29.9272 372.154 30.4058C372.432 30.8843 372.811 31.2557 373.289 31.52C373.772 31.7843 374.312 31.9165 374.909 31.9165C376.003 31.9165 376.896 31.4813 377.589 30.6108L378.348 31.1099C377.992 31.6431 377.514 32.0578 376.912 32.354C376.315 32.6457 375.634 32.7915 374.868 32.7915C373.692 32.7915 372.717 32.4178 371.942 31.6704C371.168 30.923 370.78 30.0138 370.78 28.9429C370.78 28.2228 370.96 27.5552 371.32 26.9399C371.685 26.3201 372.184 25.8371 372.817 25.4907C373.451 25.1444 374.16 24.9712 374.943 24.9712C375.436 24.9712 375.91 25.0464 376.365 25.1968C376.826 25.3472 377.215 25.5431 377.534 25.7847C377.853 26.0262 378.124 26.3338 378.348 26.7075ZM379.831 25.1626H380.809V26.2495C381.1 25.8211 381.408 25.5021 381.731 25.2925C382.055 25.0783 382.392 24.9712 382.743 24.9712C383.007 24.9712 383.29 25.0555 383.591 25.2241L383.092 26.0308C382.891 25.9442 382.723 25.9009 382.586 25.9009C382.267 25.9009 381.959 26.033 381.663 26.2974C381.367 26.5571 381.141 26.9627 380.986 27.5142C380.868 27.938 380.809 28.7948 380.809 30.0845V32.6001H379.831V25.1626ZM390.666 30.1323L391.473 30.5562C391.208 31.0757 390.903 31.495 390.557 31.814C390.21 32.133 389.821 32.3768 389.388 32.5454C388.955 32.7095 388.465 32.7915 387.918 32.7915C386.706 32.7915 385.758 32.395 385.074 31.6021C384.391 30.8045 384.049 29.9045 384.049 28.9019C384.049 27.9585 384.338 27.1177 384.917 26.3794C385.651 25.4406 386.633 24.9712 387.863 24.9712C389.13 24.9712 390.142 25.452 390.898 26.4136C391.436 27.0926 391.71 27.9403 391.719 28.9565H385.033C385.051 29.8224 385.327 30.5334 385.86 31.0894C386.394 31.6408 387.052 31.9165 387.836 31.9165C388.214 31.9165 388.581 31.8504 388.937 31.7183C389.297 31.5861 389.602 31.4106 389.853 31.1919C390.103 30.9731 390.374 30.62 390.666 30.1323ZM390.666 28.1294C390.538 27.619 390.352 27.2111 390.105 26.9058C389.864 26.6004 389.543 26.3543 389.142 26.1675C388.741 25.9806 388.319 25.8872 387.877 25.8872C387.148 25.8872 386.521 26.1219 385.997 26.5913C385.614 26.9331 385.325 27.4458 385.129 28.1294H390.666ZM400.92 25.1626V32.6001H399.977V31.3218C399.576 31.8094 399.124 32.1763 398.623 32.4224C398.126 32.6685 397.582 32.7915 396.989 32.7915C395.937 32.7915 395.036 32.411 394.289 31.6499C393.546 30.8843 393.175 29.9546 393.175 28.8608C393.175 27.7899 393.551 26.8739 394.303 26.1128C395.055 25.3517 395.959 24.9712 397.017 24.9712C397.627 24.9712 398.179 25.1011 398.671 25.3608C399.168 25.6206 399.603 26.0103 399.977 26.5298V25.1626H400.92ZM397.092 25.894C396.559 25.894 396.066 26.0262 395.615 26.2905C395.164 26.5503 394.804 26.9172 394.535 27.3911C394.271 27.8651 394.139 28.3664 394.139 28.895C394.139 29.4191 394.273 29.9204 394.542 30.3989C394.811 30.8774 395.171 31.2511 395.622 31.52C396.078 31.7843 396.565 31.9165 397.085 31.9165C397.609 31.9165 398.106 31.7843 398.575 31.52C399.045 31.2557 399.405 30.8979 399.655 30.4468C399.91 29.9956 400.038 29.4875 400.038 28.9224C400.038 28.061 399.753 27.341 399.184 26.7622C398.618 26.1834 397.921 25.894 397.092 25.894ZM403.914 22.4009H404.878V25.1626H406.396V25.9829H404.878V32.6001H403.914V25.9829H402.608V25.1626H403.914V22.4009ZM408.159 22.1001C408.378 22.1001 408.565 22.1776 408.72 22.3325C408.875 22.4875 408.952 22.6743 408.952 22.8931C408.952 23.1073 408.875 23.2918 408.72 23.4468C408.565 23.6017 408.378 23.6792 408.159 23.6792C407.945 23.6792 407.76 23.6017 407.605 23.4468C407.451 23.2918 407.373 23.1073 407.373 22.8931C407.373 22.6743 407.451 22.4875 407.605 22.3325C407.76 22.1776 407.945 22.1001 408.159 22.1001ZM407.681 25.1626H408.645V32.6001H407.681V25.1626ZM409.923 25.1626H410.941L413.43 30.5767L415.897 25.1626H416.923L413.519 32.6001H413.348L409.923 25.1626ZM424.654 30.1323L425.461 30.5562C425.197 31.0757 424.891 31.495 424.545 31.814C424.199 32.133 423.809 32.3768 423.376 32.5454C422.943 32.7095 422.453 32.7915 421.906 32.7915C420.694 32.7915 419.746 32.395 419.062 31.6021C418.379 30.8045 418.037 29.9045 418.037 28.9019C418.037 27.9585 418.326 27.1177 418.905 26.3794C419.639 25.4406 420.621 24.9712 421.852 24.9712C423.118 24.9712 424.13 25.452 424.887 26.4136C425.424 27.0926 425.698 27.9403 425.707 28.9565H419.021C419.04 29.8224 419.315 30.5334 419.849 31.0894C420.382 31.6408 421.04 31.9165 421.824 31.9165C422.202 31.9165 422.569 31.8504 422.925 31.7183C423.285 31.5861 423.59 31.4106 423.841 31.1919C424.091 30.9731 424.363 30.62 424.654 30.1323ZM424.654 28.1294C424.527 27.619 424.34 27.2111 424.094 26.9058C423.852 26.6004 423.531 26.3543 423.13 26.1675C422.729 25.9806 422.307 25.8872 421.865 25.8872C421.136 25.8872 420.509 26.1219 419.985 26.5913C419.603 26.9331 419.313 27.4458 419.117 28.1294H424.654ZM241.923 38.2915H242.88V48.6001H241.923V38.2915ZM251.131 46.1323L251.938 46.5562C251.673 47.0757 251.368 47.495 251.021 47.814C250.675 48.133 250.285 48.3768 249.853 48.5454C249.42 48.7095 248.93 48.7915 248.383 48.7915C247.171 48.7915 246.223 48.395 245.539 47.6021C244.855 46.8045 244.514 45.9045 244.514 44.9019C244.514 43.9585 244.803 43.1177 245.382 42.3794C246.116 41.4406 247.098 40.9712 248.328 40.9712C249.595 40.9712 250.607 41.452 251.363 42.4136C251.901 43.0926 252.174 43.9403 252.184 44.9565H245.498C245.516 45.8224 245.792 46.5334 246.325 47.0894C246.858 47.6408 247.517 47.9165 248.301 47.9165C248.679 47.9165 249.046 47.8504 249.401 47.7183C249.761 47.5861 250.067 47.4106 250.317 47.1919C250.568 46.9731 250.839 46.62 251.131 46.1323ZM251.131 44.1294C251.003 43.619 250.816 43.2111 250.57 42.9058C250.329 42.6004 250.007 42.3543 249.606 42.1675C249.205 41.9806 248.784 41.8872 248.342 41.8872C247.613 41.8872 246.986 42.1219 246.462 42.5913C246.079 42.9331 245.79 43.4458 245.594 44.1294H251.131ZM261.385 41.1626V48.6001H260.441V47.3218C260.04 47.8094 259.589 48.1763 259.088 48.4224C258.591 48.6685 258.047 48.7915 257.454 48.7915C256.401 48.7915 255.501 48.411 254.754 47.6499C254.011 46.8843 253.64 45.9546 253.64 44.8608C253.64 43.7899 254.016 42.8739 254.768 42.1128C255.52 41.3517 256.424 40.9712 257.481 40.9712C258.092 40.9712 258.644 41.1011 259.136 41.3608C259.632 41.6206 260.068 42.0103 260.441 42.5298V41.1626H261.385ZM257.557 41.894C257.023 41.894 256.531 42.0262 256.08 42.2905C255.629 42.5503 255.269 42.9172 255 43.3911C254.736 43.8651 254.604 44.3664 254.604 44.895C254.604 45.4191 254.738 45.9204 255.007 46.3989C255.276 46.8774 255.636 47.2511 256.087 47.52C256.543 47.7843 257.03 47.9165 257.55 47.9165C258.074 47.9165 258.571 47.7843 259.04 47.52C259.509 47.2557 259.869 46.8979 260.12 46.4468C260.375 45.9956 260.503 45.4875 260.503 44.9224C260.503 44.061 260.218 43.341 259.648 42.7622C259.083 42.1834 258.386 41.894 257.557 41.894ZM263.183 41.1626H264.16V42.2495C264.452 41.8211 264.759 41.5021 265.083 41.2925C265.407 41.0783 265.744 40.9712 266.095 40.9712C266.359 40.9712 266.642 41.0555 266.942 41.2241L266.443 42.0308C266.243 41.9442 266.074 41.9009 265.938 41.9009C265.618 41.9009 265.311 42.033 265.015 42.2974C264.718 42.5571 264.493 42.9627 264.338 43.5142C264.219 43.938 264.16 44.7948 264.16 46.0845V48.6001H263.183V41.1626ZM267.756 41.1626H268.713V42.4956C269.096 41.9852 269.52 41.6047 269.984 41.354C270.449 41.0988 270.955 40.9712 271.502 40.9712C272.058 40.9712 272.55 41.1125 272.979 41.395C273.411 41.6776 273.73 42.0581 273.936 42.5366C274.141 43.0151 274.243 43.7603 274.243 44.772V48.6001H273.293V45.0522C273.293 44.1955 273.257 43.6235 273.184 43.3364C273.07 42.8442 272.855 42.4751 272.541 42.229C272.227 41.9784 271.816 41.853 271.311 41.853C270.732 41.853 270.212 42.0444 269.752 42.4272C269.296 42.8101 268.995 43.284 268.85 43.8491C268.758 44.2183 268.713 44.8927 268.713 45.8726V48.6001H267.756V41.1626ZM276.636 38.1001C276.854 38.1001 277.041 38.1776 277.196 38.3325C277.351 38.4875 277.429 38.6743 277.429 38.8931C277.429 39.1073 277.351 39.2918 277.196 39.4468C277.041 39.6017 276.854 39.6792 276.636 39.6792C276.422 39.6792 276.237 39.6017 276.082 39.4468C275.927 39.2918 275.85 39.1073 275.85 38.8931C275.85 38.6743 275.927 38.4875 276.082 38.3325C276.237 38.1776 276.422 38.1001 276.636 38.1001ZM276.157 41.1626H277.121V48.6001H276.157V41.1626ZM279.104 41.1626H280.061V42.4956C280.443 41.9852 280.867 41.6047 281.332 41.354C281.797 41.0988 282.303 40.9712 282.85 40.9712C283.406 40.9712 283.898 41.1125 284.326 41.395C284.759 41.6776 285.078 42.0581 285.283 42.5366C285.488 43.0151 285.591 43.7603 285.591 44.772V48.6001H284.641V45.0522C284.641 44.1955 284.604 43.6235 284.531 43.3364C284.417 42.8442 284.203 42.4751 283.889 42.229C283.574 41.9784 283.164 41.853 282.658 41.853C282.079 41.853 281.56 42.0444 281.1 42.4272C280.644 42.8101 280.343 43.284 280.197 43.8491C280.106 44.2183 280.061 44.8927 280.061 45.8726V48.6001H279.104V41.1626ZM294.054 41.1626H295.018V47.0894C295.018 48.133 294.926 48.8963 294.744 49.3794C294.493 50.063 294.058 50.5894 293.438 50.9585C292.819 51.3276 292.074 51.5122 291.203 51.5122C290.565 51.5122 289.991 51.4211 289.48 51.2388C288.975 51.061 288.562 50.8195 288.243 50.5142C287.924 50.2134 287.63 49.7713 287.361 49.188H288.4C288.683 49.6802 289.048 50.0448 289.494 50.2817C289.941 50.5187 290.494 50.6372 291.155 50.6372C291.807 50.6372 292.356 50.5142 292.803 50.2681C293.254 50.0265 293.575 49.7212 293.767 49.3521C293.958 48.9829 294.054 48.3882 294.054 47.5679V47.1851C293.694 47.6408 293.254 47.9917 292.734 48.2378C292.215 48.4793 291.663 48.6001 291.08 48.6001C290.396 48.6001 289.754 48.4315 289.152 48.0942C288.551 47.7524 288.086 47.2944 287.758 46.7202C287.43 46.146 287.266 45.5148 287.266 44.8267C287.266 44.1385 287.437 43.4982 287.778 42.9058C288.12 42.3088 288.592 41.8371 289.193 41.4907C289.799 41.1444 290.438 40.9712 291.107 40.9712C291.663 40.9712 292.181 41.0874 292.659 41.3198C293.142 41.5477 293.607 41.9259 294.054 42.4546V41.1626ZM291.23 41.894C290.688 41.894 290.185 42.0262 289.72 42.2905C289.255 42.5503 288.89 42.9126 288.626 43.3774C288.362 43.8377 288.229 44.3368 288.229 44.8745C288.229 45.6903 288.503 46.3647 289.05 46.8979C289.597 47.4312 290.305 47.6978 291.176 47.6978C292.055 47.6978 292.762 47.4334 293.295 46.9048C293.833 46.3761 294.102 45.6812 294.102 44.8198C294.102 44.2593 293.979 43.7603 293.732 43.3228C293.486 42.8807 293.138 42.5321 292.687 42.2769C292.235 42.0216 291.75 41.894 291.23 41.894ZM304.472 40.9712C305.616 40.9712 306.563 41.3859 307.315 42.2153C307.999 42.9718 308.341 43.8674 308.341 44.9019C308.341 45.9409 307.979 46.8501 307.254 47.6294C306.534 48.4041 305.606 48.7915 304.472 48.7915C303.332 48.7915 302.4 48.4041 301.676 47.6294C300.956 46.8501 300.596 45.9409 300.596 44.9019C300.596 43.8719 300.938 42.9787 301.621 42.2222C302.373 41.3882 303.323 40.9712 304.472 40.9712ZM304.472 41.9077C303.679 41.9077 302.997 42.2017 302.428 42.7896C301.858 43.3774 301.573 44.0884 301.573 44.9224C301.573 45.4601 301.703 45.9614 301.963 46.4263C302.223 46.8911 302.574 47.2511 303.016 47.5063C303.458 47.757 303.943 47.8823 304.472 47.8823C305 47.8823 305.486 47.757 305.928 47.5063C306.37 47.2511 306.721 46.8911 306.98 46.4263C307.24 45.9614 307.37 45.4601 307.37 44.9224C307.37 44.0884 307.083 43.3774 306.509 42.7896C305.939 42.2017 305.26 41.9077 304.472 41.9077ZM310.139 41.1626H311.089V42.5298C311.467 42.0103 311.902 41.6206 312.395 41.3608C312.887 41.1011 313.436 40.9712 314.042 40.9712C315.099 40.9712 316.004 41.3517 316.756 42.1128C317.508 42.8739 317.884 43.7899 317.884 44.8608C317.884 45.9546 317.51 46.8843 316.763 47.6499C316.02 48.411 315.122 48.7915 314.069 48.7915C313.477 48.7915 312.932 48.6685 312.436 48.4224C311.939 48.1763 311.49 47.8094 311.089 47.3218V51.3208H310.139V41.1626ZM313.967 41.894C313.137 41.894 312.438 42.1834 311.868 42.7622C311.303 43.341 311.021 44.061 311.021 44.9224C311.021 45.4875 311.146 45.9956 311.396 46.4468C311.652 46.8979 312.014 47.2557 312.483 47.52C312.957 47.7843 313.456 47.9165 313.98 47.9165C314.495 47.9165 314.979 47.7843 315.43 47.52C315.885 47.2511 316.248 46.8774 316.517 46.3989C316.785 45.9204 316.92 45.4191 316.92 44.895C316.92 44.3664 316.785 43.8651 316.517 43.3911C316.252 42.9172 315.895 42.5503 315.443 42.2905C314.992 42.0262 314.5 41.894 313.967 41.894ZM319.695 41.1626H320.646V42.5298C321.024 42.0103 321.459 41.6206 321.951 41.3608C322.443 41.1011 322.993 40.9712 323.599 40.9712C324.656 40.9712 325.561 41.3517 326.312 42.1128C327.064 42.8739 327.44 43.7899 327.44 44.8608C327.44 45.9546 327.067 46.8843 326.319 47.6499C325.576 48.411 324.679 48.7915 323.626 48.7915C323.034 48.7915 322.489 48.6685 321.992 48.4224C321.495 48.1763 321.047 47.8094 320.646 47.3218V51.3208H319.695V41.1626ZM323.523 41.894C322.694 41.894 321.994 42.1834 321.425 42.7622C320.86 43.341 320.577 44.061 320.577 44.9224C320.577 45.4875 320.702 45.9956 320.953 46.4468C321.208 46.8979 321.571 47.2557 322.04 47.52C322.514 47.7843 323.013 47.9165 323.537 47.9165C324.052 47.9165 324.535 47.7843 324.986 47.52C325.442 47.2511 325.804 46.8774 326.073 46.3989C326.342 45.9204 326.477 45.4191 326.477 44.895C326.477 44.3664 326.342 43.8651 326.073 43.3911C325.809 42.9172 325.451 42.5503 325 42.2905C324.549 42.0262 324.057 41.894 323.523 41.894ZM332.759 40.9712C333.903 40.9712 334.851 41.3859 335.603 42.2153C336.286 42.9718 336.628 43.8674 336.628 44.9019C336.628 45.9409 336.266 46.8501 335.541 47.6294C334.821 48.4041 333.894 48.7915 332.759 48.7915C331.619 48.7915 330.688 48.4041 329.963 47.6294C329.243 46.8501 328.883 45.9409 328.883 44.9019C328.883 43.8719 329.225 42.9787 329.908 42.2222C330.66 41.3882 331.61 40.9712 332.759 40.9712ZM332.759 41.9077C331.966 41.9077 331.285 42.2017 330.715 42.7896C330.145 43.3774 329.86 44.0884 329.86 44.9224C329.86 45.4601 329.99 45.9614 330.25 46.4263C330.51 46.8911 330.861 47.2511 331.303 47.5063C331.745 47.757 332.23 47.8823 332.759 47.8823C333.287 47.8823 333.773 47.757 334.215 47.5063C334.657 47.2511 335.008 46.8911 335.268 46.4263C335.527 45.9614 335.657 45.4601 335.657 44.9224C335.657 44.0884 335.37 43.3774 334.796 42.7896C334.226 42.2017 333.547 41.9077 332.759 41.9077ZM338.05 41.1626H339.027V42.2495C339.319 41.8211 339.627 41.5021 339.95 41.2925C340.274 41.0783 340.611 40.9712 340.962 40.9712C341.226 40.9712 341.509 41.0555 341.81 41.2241L341.311 42.0308C341.11 41.9442 340.941 41.9009 340.805 41.9009C340.486 41.9009 340.178 42.033 339.882 42.2974C339.586 42.5571 339.36 42.9627 339.205 43.5142C339.087 43.938 339.027 44.7948 339.027 46.0845V48.6001H338.05V41.1626ZM343.457 38.4009H344.421V41.1626H345.938V41.9829H344.421V48.6001H343.457V41.9829H342.151V41.1626H343.457V38.4009ZM347.244 41.1626H348.208V44.6353C348.208 45.4829 348.254 46.0662 348.345 46.3853C348.481 46.841 348.741 47.201 349.124 47.4653C349.511 47.7297 349.972 47.8618 350.505 47.8618C351.038 47.8618 351.489 47.7342 351.858 47.479C352.232 47.2192 352.49 46.8797 352.631 46.4604C352.727 46.1733 352.774 45.5649 352.774 44.6353V41.1626H353.752V44.813C353.752 45.8384 353.631 46.6108 353.39 47.1304C353.153 47.6499 352.793 48.0578 352.31 48.354C351.831 48.6457 351.229 48.7915 350.505 48.7915C349.78 48.7915 349.174 48.6457 348.687 48.354C348.203 48.0578 347.841 47.6476 347.6 47.1235C347.363 46.5949 347.244 45.8019 347.244 44.7446V41.1626ZM355.885 41.1626H356.842V42.4956C357.225 41.9852 357.648 41.6047 358.113 41.354C358.578 41.0988 359.084 40.9712 359.631 40.9712C360.187 40.9712 360.679 41.1125 361.107 41.395C361.54 41.6776 361.859 42.0581 362.064 42.5366C362.27 43.0151 362.372 43.7603 362.372 44.772V48.6001H361.422V45.0522C361.422 44.1955 361.385 43.6235 361.312 43.3364C361.199 42.8442 360.984 42.4751 360.67 42.229C360.355 41.9784 359.945 41.853 359.439 41.853C358.861 41.853 358.341 42.0444 357.881 42.4272C357.425 42.8101 357.124 43.284 356.979 43.8491C356.887 44.2183 356.842 44.8927 356.842 45.8726V48.6001H355.885V41.1626ZM364.765 38.1001C364.983 38.1001 365.17 38.1776 365.325 38.3325C365.48 38.4875 365.558 38.6743 365.558 38.8931C365.558 39.1073 365.48 39.2918 365.325 39.4468C365.17 39.6017 364.983 39.6792 364.765 39.6792C364.55 39.6792 364.366 39.6017 364.211 39.4468C364.056 39.2918 363.979 39.1073 363.979 38.8931C363.979 38.6743 364.056 38.4875 364.211 38.3325C364.366 38.1776 364.55 38.1001 364.765 38.1001ZM364.286 41.1626H365.25V48.6001H364.286V41.1626ZM368.066 38.4009H369.03V41.1626H370.548V41.9829H369.03V48.6001H368.066V41.9829H366.761V41.1626H368.066V38.4009ZM372.312 38.1001C372.53 38.1001 372.717 38.1776 372.872 38.3325C373.027 38.4875 373.104 38.6743 373.104 38.8931C373.104 39.1073 373.027 39.2918 372.872 39.4468C372.717 39.6017 372.53 39.6792 372.312 39.6792C372.097 39.6792 371.913 39.6017 371.758 39.4468C371.603 39.2918 371.525 39.1073 371.525 38.8931C371.525 38.6743 371.603 38.4875 371.758 38.3325C371.913 38.1776 372.097 38.1001 372.312 38.1001ZM371.833 41.1626H372.797V48.6001H371.833V41.1626ZM381.041 46.1323L381.848 46.5562C381.583 47.0757 381.278 47.495 380.932 47.814C380.585 48.133 380.196 48.3768 379.763 48.5454C379.33 48.7095 378.84 48.7915 378.293 48.7915C377.081 48.7915 376.133 48.395 375.449 47.6021C374.766 46.8045 374.424 45.9045 374.424 44.9019C374.424 43.9585 374.713 43.1177 375.292 42.3794C376.026 41.4406 377.008 40.9712 378.238 40.9712C379.505 40.9712 380.517 41.452 381.273 42.4136C381.811 43.0926 382.085 43.9403 382.094 44.9565H375.408C375.426 45.8224 375.702 46.5334 376.235 47.0894C376.769 47.6408 377.427 47.9165 378.211 47.9165C378.589 47.9165 378.956 47.8504 379.312 47.7183C379.672 47.5861 379.977 47.4106 380.228 47.1919C380.478 46.9731 380.749 46.62 381.041 46.1323ZM381.041 44.1294C380.913 43.619 380.727 43.2111 380.48 42.9058C380.239 42.6004 379.918 42.3543 379.517 42.1675C379.116 41.9806 378.694 41.8872 378.252 41.8872C377.523 41.8872 376.896 42.1219 376.372 42.5913C375.989 42.9331 375.7 43.4458 375.504 44.1294H381.041ZM387.624 41.9761L387.009 42.6118C386.498 42.1151 385.999 41.8667 385.512 41.8667C385.202 41.8667 384.935 41.9692 384.712 42.1743C384.493 42.3794 384.384 42.6187 384.384 42.8921C384.384 43.1336 384.475 43.3638 384.657 43.5825C384.84 43.8058 385.222 44.0679 385.806 44.3687C386.517 44.7378 387 45.0933 387.255 45.4351C387.506 45.7814 387.631 46.1711 387.631 46.604C387.631 47.2147 387.417 47.7319 386.988 48.1558C386.56 48.5796 386.024 48.7915 385.382 48.7915C384.953 48.7915 384.543 48.6981 384.151 48.5112C383.764 48.3244 383.443 48.0669 383.188 47.7388L383.789 47.0552C384.277 47.6066 384.794 47.8823 385.341 47.8823C385.724 47.8823 386.049 47.7593 386.318 47.5132C386.587 47.2671 386.722 46.9777 386.722 46.645C386.722 46.3716 386.633 46.1278 386.455 45.9136C386.277 45.7039 385.876 45.4396 385.252 45.1206C384.582 44.7743 384.126 44.4325 383.885 44.0952C383.643 43.758 383.522 43.3729 383.522 42.9399C383.522 42.3748 383.714 41.9054 384.097 41.5317C384.484 41.158 384.972 40.9712 385.56 40.9712C386.243 40.9712 386.931 41.3062 387.624 41.9761Z" fill="#126443"/>
</svg>
